<?xml version="1.0" standalone="no"?>
<!DOCTYPE svg PUBLIC "-//W3C//DTD SVG 20010904//EN"
 "http://www.w3.org/TR/2001/REC-SVG-20010904/DTD/svg10.dtd">
<svg version="1.0" xmlns="http://www.w3.org/2000/svg"
 width="64.000000pt" height="64.000000pt" viewBox="0 0 64.000000 64.000000"
 preserveAspectRatio="xMidYMid meet">

<g transform="translate(0.000000,64.000000) scale(0.100000,-0.100000)"
fill="#000000" stroke="none">
<path d="M242 529 c-64 -15 -159 -85 -205 -151 l-41 -58 41 -57 c149 -212 422
-211 568 2 l38 55 -38 55 c-39 58 -108 115 -169 140 -47 20 -140 27 -194 14z
m146 -89 c18 -11 41 -34 52 -52 71 -117 -71 -259 -188 -188 -18 11 -41 34 -52
52 -71 117 71 259 188 188z"/>
<path d="M241 399 c-26 -26 -31 -38 -31 -79 0 -41 5 -53 31 -79 26 -26 38 -31
79 -31 41 0 53 5 79 31 26 26 31 38 31 79 0 41 -5 53 -31 79 -26 26 -38 31
-79 31 -41 0 -53 -5 -79 -31z m89 0 c0 -5 -13 -15 -29 -20 -19 -7 -33 -21 -40
-40 -12 -33 -31 -39 -31 -8 0 27 52 79 79 79 12 0 21 -5 21 -11z"/>
</g>
</svg>
