<?xml version="1.0" standalone="no"?>
<!DOCTYPE svg PUBLIC "-//W3C//DTD SVG 20010904//EN"
 "http://www.w3.org/TR/2001/REC-SVG-20010904/DTD/svg10.dtd">
<svg version="1.0" xmlns="http://www.w3.org/2000/svg"
 width="512.000000pt" height="512.000000pt" viewBox="0 0 512.000000 512.000000"
 preserveAspectRatio="xMidYMid meet">

<g transform="translate(0.000000,512.000000) scale(0.100000,-0.100000)"
fill="#000000" stroke="none">
<path d="M2370 4814 c-772 -71 -1542 -470 -2317 -1200 l-52 -49 104 -108 104
-108 98 91 c561 524 1177 886 1728 1015 203 48 308 59 525 59 232 0 353 -15
565 -69 553 -142 1132 -487 1689 -1004 94 -88 100 -92 115 -74 10 10 56 59
105 109 l87 91 -148 134 c-701 634 -1369 988 -2063 1094 -101 15 -446 27 -540
19z"/>
<path d="M2440 4210 c-431 -28 -859 -196 -1312 -513 -364 -255 -754 -637
-1043 -1022 l-87 -115 59 -81 c501 -697 1271 -1291 1933 -1493 312 -95 635
-108 969 -41 68 14 125 24 126 23 1 -2 14 -30 29 -62 67 -149 221 -329 365
-426 91 -61 217 -117 329 -147 85 -23 117 -26 257 -26 141 0 172 3 260 26 308
82 552 283 690 568 25 52 57 139 72 194 24 89 27 118 26 260 0 140 -3 172 -26
257 -46 174 -134 333 -250 455 l-59 61 97 114 c54 62 131 159 171 215 l75 102
-60 83 c-446 622 -1138 1186 -1743 1422 -310 122 -577 166 -878 146z m445
-329 c414 -89 807 -299 1225 -655 145 -123 393 -374 528 -534 l112 -133 -47
-57 c-26 -31 -76 -89 -110 -128 l-62 -71 -90 33 c-141 53 -218 67 -376 67
-109 0 -159 -4 -225 -21 -47 -11 -92 -23 -100 -26 -13 -5 -15 20 -15 196 -1
189 -3 210 -28 303 -32 120 -126 314 -196 405 -64 84 -199 214 -280 269 -93
64 -252 136 -366 167 -93 26 -113 28 -295 28 -181 0 -202 -2 -295 -27 -120
-33 -315 -127 -405 -196 -83 -63 -214 -199 -268 -277 -92 -136 -157 -295 -187
-459 -23 -123 -16 -364 14 -484 112 -442 460 -778 906 -873 186 -39 435 -23
614 40 l78 28 -3 -105 c-5 -123 13 -109 -169 -140 -224 -39 -408 -36 -625 10
-572 119 -1198 548 -1748 1197 l-102 121 77 93 c560 667 1203 1111 1778 1227
149 30 145 29 360 26 159 -2 220 -7 300 -24z m-85 -481 c300 -87 540 -340 610
-644 19 -83 22 -116 18 -234 -4 -121 -9 -148 -38 -234 -55 -164 -165 -319
-299 -422 -176 -135 -407 -200 -623 -176 -203 23 -375 107 -523 255 -106 106
-169 207 -217 345 -31 92 -32 100 -33 260 0 195 11 246 84 395 119 241 336
411 596 469 102 23 324 16 425 -14z m1395 -1305 c378 -66 645 -403 622 -785
-12 -191 -82 -346 -222 -486 -76 -77 -105 -98 -185 -137 -115 -57 -187 -76
-305 -84 -314 -20 -611 169 -736 467 -111 262 -53 577 147 799 97 108 288 208
436 230 96 13 147 12 243 -4z"/>
<path d="M2455 2996 c-244 -59 -393 -307 -330 -549 21 -81 50 -132 108 -195
89 -93 201 -142 327 -142 126 0 238 49 327 142 58 63 87 114 108 195 85 326
-213 629 -540 549z m179 -309 c53 -30 78 -79 73 -140 -5 -57 -30 -95 -78 -119
-65 -34 -150 -14 -192 44 -29 39 -33 114 -9 158 23 43 85 80 132 80 19 0 53
-10 74 -23z"/>
<path d="M3710 1705 l-105 -105 123 -123 122 -122 -122 -123 -123 -122 108
-107 107 -108 123 123 122 122 123 -122 122 -123 107 108 108 107 -123 123
-122 122 122 123 123 122 -108 107 -107 108 -123 -123 -122 -122 -120 120
c-66 66 -122 120 -125 120 -3 0 -52 -47 -110 -105z"/>
</g>
</svg>
