<?xml version="1.0" standalone="no"?>
<!DOCTYPE svg PUBLIC "-//W3C//DTD SVG 20010904//EN"
 "http://www.w3.org/TR/2001/REC-SVG-20010904/DTD/svg10.dtd">
<svg version="1.0" xmlns="http://www.w3.org/2000/svg"
 width="96.000000pt" height="96.000000pt" viewBox="0 0 96.000000 96.000000"
 preserveAspectRatio="xMidYMid meet">

<g transform="translate(0.000000,96.000000) scale(0.100000,-0.100000)"
fill="#172b4d" stroke="none">
<path d="M665 850 l-50 -50 93 -93 92 -92 52 53 53 52 -90 90 c-49 49 -92 90
-95 90 -3 0 -28 -23 -55 -50z"/>
<path d="M376 561 c-109 -109 -196 -203 -192 -209 3 -5 19 -12 35 -15 24 -5
32 -14 39 -39 6 -25 15 -34 40 -40 24 -7 33 -16 40 -40 4 -17 12 -33 18 -35 5
-2 99 87 209 197 l200 200 -90 90 c-49 49 -92 90 -95 90 -3 0 -95 -89 -204
-199z"/>
<path d="M135 290 c-11 -19 -35 -174 -27 -182 10 -10 172 18 186 32 7 7 -13
34 -64 85 -76 77 -84 82 -95 65z"/>
</g>
</svg>
